<?xml version="1.0" standalone="no"?>
<!DOCTYPE svg PUBLIC "-//W3C//DTD SVG 20010904//EN"
 "http://www.w3.org/TR/2001/REC-SVG-20010904/DTD/svg10.dtd">
<svg version="1.0" xmlns="http://www.w3.org/2000/svg"
 width="211.000000pt" height="195.000000pt" viewBox="0 0 211.000000 195.000000"
 preserveAspectRatio="xMidYMid meet">

<g transform="translate(0.000000,195.000000) scale(0.100000,-0.100000)"
fill="#000000" stroke="none">
<path d="M0 975 l0 -975 378 1 c221 1 352 5 317 9 -145 18 -275 83 -386 192
-54 53 -78 88 -113 160 -73 152 -78 191 -74 654 4 386 5 401 27 464 41 115 82
181 168 268 66 66 99 90 165 122 136 66 172 70 609 70 213 0 410 -4 438 -10
227 -43 421 -216 499 -444 l27 -81 0 -435 0 -435 -33 -90 c-55 -154 -147 -265
-289 -351 -52 -31 -176 -76 -243 -87 -14 -2 120 -5 298 -6 l322 -1 0 975 0
975 -1055 0 -1055 0 0 -975z"/>
<path d="M694 1880 c-196 -30 -368 -155 -453 -331 -22 -47 -46 -111 -52 -143
-6 -36 -9 -208 -7 -469 l3 -412 27 -67 c30 -74 79 -155 127 -211 45 -51 163
-126 246 -156 l70 -26 400 -3 c453 -3 488 0 623 69 131 66 224 169 285 316
l32 78 3 410 c2 278 0 429 -8 470 -20 103 -82 217 -163 299 -83 84 -151 125
-257 157 -71 22 -93 23 -450 25 -206 1 -398 -1 -426 -6z m256 -370 l0 -110
-65 0 c-47 0 -65 -4 -65 -13 0 -7 60 -188 134 -402 127 -368 135 -388 146
-360 22 55 260 757 260 766 0 5 -27 9 -60 9 l-60 0 0 110 0 110 280 0 280 0 0
-110 0 -109 -71 -3 -71 -3 -192 -535 -192 -535 -184 -3 -185 -2 -191 537 -192
538 -71 3 -71 3 0 109 0 110 285 0 285 0 0 -110z"/>
</g>
</svg>
